<svg xmlns="http://www.w3.org/2000/svg" xmlns:xlink="http://www.w3.org/1999/xlink" width="500" zoomAndPan="magnify" viewBox="0 0 375 374.999991" height="500" preserveAspectRatio="xMidYMid meet" version="1.0"><defs><clipPath id="aeb6357282"><path d="M 10 38 L 365 38 L 365 336 L 10 336 Z M 10 38 " clip-rule="nonzero"/></clipPath><clipPath id="308ce39e46"><path d="M 108.992188 93.585938 L 351.992188 93.585938 L 351.992188 336 L 108.992188 336 Z M 108.992188 93.585938 " clip-rule="nonzero"/></clipPath><clipPath id="dd34c1d773"><path d="M 108.992188 126.910156 L 253.742188 126.910156 L 253.742188 228.910156 L 108.992188 228.910156 Z M 108.992188 126.910156 " clip-rule="nonzero"/></clipPath></defs><g clip-path="url(#aeb6357282)"><path fill="#00bf63" d="M 214.550781 328.40625 L 214.550781 255.714844 L 151.929688 255.714844 L 151.929688 328.402344 C 151.929688 328.917969 151.878906 329.429688 151.777344 329.9375 C 151.675781 330.445312 151.527344 330.9375 151.328125 331.414062 C 151.132812 331.890625 150.890625 332.347656 150.605469 332.777344 C 150.316406 333.207031 149.992188 333.605469 149.625 333.972656 C 149.261719 334.335938 148.863281 334.664062 148.433594 334.953125 C 148.007812 335.242188 147.550781 335.484375 147.074219 335.683594 C 146.597656 335.882812 146.105469 336.035156 145.597656 336.136719 C 145.09375 336.238281 144.582031 336.292969 144.0625 336.292969 L 61.328125 336.292969 C 60.8125 336.292969 60.300781 336.242188 59.792969 336.140625 C 59.285156 336.039062 58.789062 335.890625 58.3125 335.691406 C 57.835938 335.492188 57.378906 335.25 56.949219 334.960938 C 56.519531 334.675781 56.121094 334.347656 55.753906 333.980469 C 55.390625 333.617188 55.0625 333.21875 54.773438 332.785156 C 54.488281 332.355469 54.246094 331.902344 54.046875 331.425781 C 53.847656 330.945312 53.699219 330.453125 53.597656 329.945312 C 53.496094 329.4375 53.445312 328.925781 53.445312 328.40625 L 53.445312 185.332031 C 53.445312 184.949219 53.480469 184.570312 53.554688 184.195312 C 53.628906 183.820312 53.742188 183.457031 53.886719 183.101562 C 54.035156 182.75 54.214844 182.414062 54.425781 182.09375 C 54.640625 181.777344 54.878906 181.480469 55.152344 181.210938 C 55.421875 180.941406 55.714844 180.699219 56.035156 180.484375 C 56.351562 180.273438 56.6875 180.09375 57.042969 179.949219 C 57.394531 179.800781 57.761719 179.691406 58.136719 179.617188 C 58.511719 179.542969 58.890625 179.503906 59.273438 179.503906 C 59.65625 179.503906 60.035156 179.542969 60.410156 179.617188 C 60.785156 179.691406 61.148438 179.800781 61.503906 179.949219 C 61.855469 180.09375 62.191406 180.273438 62.511719 180.484375 C 62.828125 180.699219 63.125 180.941406 63.394531 181.210938 C 63.664062 181.480469 63.90625 181.777344 64.121094 182.09375 C 64.332031 182.414062 64.511719 182.75 64.65625 183.101562 C 64.804688 183.457031 64.914062 183.820312 64.988281 184.195312 C 65.066406 184.570312 65.101562 184.949219 65.101562 185.332031 L 65.101562 324.628906 L 140.269531 324.628906 L 140.269531 251.941406 C 140.269531 251.425781 140.320312 250.910156 140.421875 250.402344 C 140.523438 249.894531 140.671875 249.402344 140.871094 248.925781 C 141.070312 248.445312 141.3125 247.992188 141.601562 247.5625 C 141.890625 247.132812 142.214844 246.734375 142.582031 246.367188 C 142.949219 246.003906 143.347656 245.675781 143.777344 245.386719 C 144.207031 245.101562 144.660156 244.855469 145.140625 244.660156 C 145.617188 244.460938 146.109375 244.308594 146.617188 244.210938 C 147.125 244.109375 147.636719 244.058594 148.15625 244.054688 L 218.359375 244.054688 C 218.878906 244.058594 219.390625 244.109375 219.898438 244.210938 C 220.40625 244.308594 220.898438 244.460938 221.375 244.660156 C 221.855469 244.855469 222.308594 245.101562 222.738281 245.386719 C 223.167969 245.675781 223.566406 246.003906 223.933594 246.367188 C 224.300781 246.734375 224.625 247.132812 224.914062 247.5625 C 225.203125 247.992188 225.445312 248.445312 225.644531 248.925781 C 225.839844 249.402344 225.992188 249.894531 226.09375 250.402344 C 226.195312 250.910156 226.246094 251.425781 226.246094 251.941406 L 226.246094 324.628906 L 301.414062 324.628906 L 301.414062 185.332031 C 301.414062 184.949219 301.449219 184.570312 301.523438 184.195312 C 301.601562 183.820312 301.710938 183.457031 301.855469 183.101562 C 302.003906 182.75 302.183594 182.414062 302.394531 182.09375 C 302.609375 181.777344 302.851562 181.480469 303.121094 181.210938 C 303.390625 180.941406 303.6875 180.699219 304.003906 180.484375 C 304.320312 180.273438 304.65625 180.09375 305.011719 179.949219 C 305.367188 179.800781 305.730469 179.691406 306.105469 179.617188 C 306.480469 179.542969 306.859375 179.503906 307.242188 179.503906 C 307.625 179.503906 308.003906 179.542969 308.378906 179.617188 C 308.753906 179.691406 309.121094 179.800781 309.472656 179.949219 C 309.828125 180.09375 310.164062 180.273438 310.480469 180.484375 C 310.800781 180.699219 311.09375 180.941406 311.363281 181.210938 C 311.636719 181.480469 311.875 181.777344 312.089844 182.09375 C 312.300781 182.414062 312.480469 182.75 312.628906 183.101562 C 312.773438 183.457031 312.886719 183.820312 312.960938 184.195312 C 313.035156 184.570312 313.070312 184.949219 313.070312 185.332031 L 313.070312 328.40625 C 313.070312 328.925781 313.019531 329.4375 312.917969 329.945312 C 312.816406 330.453125 312.667969 330.945312 312.46875 331.425781 C 312.269531 331.902344 312.027344 332.355469 311.742188 332.785156 C 311.453125 333.21875 311.125 333.617188 310.761719 333.980469 C 310.394531 334.347656 309.996094 334.675781 309.566406 334.960938 C 309.136719 335.25 308.679688 335.492188 308.203125 335.691406 C 307.722656 335.890625 307.230469 336.039062 306.722656 336.140625 C 306.214844 336.242188 305.703125 336.292969 305.1875 336.292969 L 222.445312 336.292969 C 221.925781 336.292969 221.414062 336.242188 220.90625 336.140625 C 220.398438 336.039062 219.902344 335.890625 219.425781 335.691406 C 218.945312 335.496094 218.492188 335.253906 218.0625 334.964844 C 217.628906 334.675781 217.230469 334.351562 216.867188 333.984375 C 216.5 333.617188 216.171875 333.21875 215.882812 332.789062 C 215.597656 332.359375 215.351562 331.902344 215.15625 331.425781 C 214.957031 330.949219 214.804688 330.453125 214.703125 329.945312 C 214.601562 329.4375 214.550781 328.925781 214.550781 328.40625 Z M 355.039062 191.007812 C 355.324219 191.292969 355.636719 191.546875 355.976562 191.769531 C 356.316406 191.988281 356.671875 192.175781 357.050781 192.320312 C 357.429688 192.46875 357.816406 192.574219 358.214844 192.640625 C 358.617188 192.707031 359.019531 192.730469 359.421875 192.710938 C 359.828125 192.695312 360.226562 192.632812 360.617188 192.53125 C 361.011719 192.433594 361.386719 192.292969 361.75 192.113281 C 362.113281 191.933594 362.453125 191.714844 362.773438 191.464844 C 363.089844 191.214844 363.378906 190.933594 363.640625 190.625 C 363.898438 190.3125 364.125 189.976562 364.3125 189.621094 C 364.503906 189.261719 364.652344 188.886719 364.765625 188.5 C 364.878906 188.109375 364.949219 187.714844 364.976562 187.308594 C 365.007812 186.90625 364.996094 186.503906 364.941406 186.101562 C 364.886719 185.699219 364.789062 185.308594 364.652344 184.925781 C 364.515625 184.546875 364.34375 184.183594 364.128906 183.835938 C 363.917969 183.492188 363.671875 183.171875 363.394531 182.878906 C 363.117188 182.585938 362.808594 182.324219 362.476562 182.09375 L 192.378906 39.976562 C 192.023438 39.679688 191.652344 39.417969 191.253906 39.191406 C 190.855469 38.960938 190.441406 38.769531 190.011719 38.613281 C 189.578125 38.457031 189.136719 38.339844 188.6875 38.257812 C 188.234375 38.179688 187.78125 38.140625 187.320312 38.140625 C 186.863281 38.140625 186.40625 38.179688 185.957031 38.257812 C 185.503906 38.339844 185.0625 38.457031 184.632812 38.613281 C 184.199219 38.769531 183.785156 38.960938 183.390625 39.191406 C 182.992188 39.417969 182.617188 39.679688 182.265625 39.976562 L 12.164062 182.09375 C 11.871094 182.335938 11.605469 182.609375 11.363281 182.90625 C 11.125 183.207031 10.914062 183.523438 10.738281 183.863281 C 10.558594 184.203125 10.417969 184.554688 10.308594 184.921875 C 10.199219 185.289062 10.128906 185.664062 10.09375 186.046875 C 10.0625 186.425781 10.066406 186.808594 10.105469 187.1875 C 10.144531 187.570312 10.222656 187.941406 10.339844 188.308594 C 10.453125 188.671875 10.601562 189.023438 10.785156 189.359375 C 10.96875 189.695312 11.183594 190.011719 11.425781 190.304688 C 11.671875 190.597656 11.945312 190.863281 12.242188 191.105469 C 12.539062 191.34375 12.859375 191.554688 13.199219 191.730469 C 13.539062 191.910156 13.890625 192.050781 14.257812 192.160156 C 14.625 192.269531 15 192.339844 15.378906 192.375 C 15.761719 192.40625 16.144531 192.40625 16.523438 192.363281 C 16.902344 192.324219 17.277344 192.246094 17.640625 192.132812 C 18.007812 192.015625 18.359375 191.867188 18.695312 191.683594 C 19.03125 191.5 19.34375 191.285156 19.640625 191.042969 L 187.320312 50.9375 Z M 243.050781 57.183594 L 287.210938 57.183594 L 287.210938 101.34375 C 287.210938 101.726562 287.246094 102.105469 287.320312 102.480469 C 287.394531 102.855469 287.507812 103.21875 287.652344 103.574219 C 287.800781 103.925781 287.980469 104.261719 288.191406 104.582031 C 288.40625 104.898438 288.644531 105.195312 288.917969 105.464844 C 289.1875 105.734375 289.480469 105.976562 289.800781 106.191406 C 290.117188 106.402344 290.453125 106.582031 290.808594 106.730469 C 291.160156 106.875 291.527344 106.984375 291.902344 107.058594 C 292.277344 107.136719 292.65625 107.171875 293.039062 107.171875 C 293.421875 107.171875 293.800781 107.136719 294.175781 107.058594 C 294.550781 106.984375 294.914062 106.875 295.269531 106.730469 C 295.621094 106.582031 295.957031 106.402344 296.277344 106.191406 C 296.59375 105.976562 296.890625 105.734375 297.160156 105.464844 C 297.429688 105.195312 297.671875 104.898438 297.886719 104.582031 C 298.097656 104.261719 298.277344 103.925781 298.425781 103.574219 C 298.570312 103.21875 298.679688 102.855469 298.753906 102.480469 C 298.832031 102.105469 298.867188 101.726562 298.867188 101.34375 L 298.867188 53.414062 C 298.867188 52.894531 298.816406 52.382812 298.714844 51.875 C 298.613281 51.367188 298.464844 50.875 298.265625 50.394531 C 298.066406 49.917969 297.824219 49.464844 297.535156 49.035156 C 297.25 48.601562 296.921875 48.207031 296.554688 47.839844 C 296.191406 47.472656 295.792969 47.144531 295.363281 46.859375 C 294.929688 46.570312 294.476562 46.328125 294 46.128906 C 293.519531 45.929688 293.027344 45.78125 292.519531 45.679688 C 292.011719 45.578125 291.5 45.527344 290.980469 45.527344 L 243.050781 45.527344 C 242.667969 45.527344 242.289062 45.566406 241.914062 45.640625 C 241.539062 45.714844 241.175781 45.824219 240.820312 45.96875 C 240.464844 46.117188 240.128906 46.296875 239.8125 46.507812 C 239.492188 46.722656 239.199219 46.964844 238.929688 47.234375 C 238.65625 47.503906 238.417969 47.800781 238.203125 48.117188 C 237.992188 48.4375 237.8125 48.773438 237.664062 49.125 C 237.519531 49.480469 237.40625 49.84375 237.332031 50.21875 C 237.257812 50.59375 237.21875 50.972656 237.21875 51.355469 C 237.21875 51.738281 237.257812 52.117188 237.332031 52.492188 C 237.40625 52.871094 237.519531 53.234375 237.664062 53.585938 C 237.8125 53.941406 237.992188 54.277344 238.203125 54.59375 C 238.417969 54.914062 238.65625 55.207031 238.929688 55.480469 C 239.199219 55.75 239.492188 55.992188 239.8125 56.203125 C 240.128906 56.417969 240.464844 56.597656 240.820312 56.742188 C 241.175781 56.890625 241.539062 57 241.914062 57.074219 C 242.289062 57.148438 242.667969 57.1875 243.050781 57.183594 Z M 243.050781 57.183594 " fill-opacity="1" fill-rule="nonzero"/></g><g clip-path="url(#308ce39e46)"><path fill="#e43402" d="M 192.964844 251.796875 C 233.964844 251.796875 267.203125 218.558594 267.203125 177.558594 C 267.203125 136.558594 233.964844 103.320312 192.964844 103.320312 C 151.964844 103.320312 118.726562 136.558594 118.726562 177.558594 C 118.726562 218.558594 151.964844 251.796875 192.964844 251.796875 Z M 255.6875 233.394531 L 349.75 327.460938 C 351.652344 329.359375 351.652344 332.445312 349.75 334.34375 C 347.851562 336.246094 344.769531 336.246094 342.867188 334.34375 L 248.800781 240.28125 C 233.964844 253.5 214.402344 261.53125 192.964844 261.53125 C 146.589844 261.53125 108.992188 223.9375 108.992188 177.558594 C 108.992188 131.183594 146.589844 93.585938 192.964844 93.585938 C 239.34375 93.585938 276.9375 131.183594 276.9375 177.558594 C 276.9375 198.996094 268.90625 218.558594 255.6875 233.394531 Z M 255.6875 233.394531 " fill-opacity="1" fill-rule="nonzero"/></g><g clip-path="url(#dd34c1d773)"><path fill="#e43402" d="M 225.972656 140.476562 L 222.984375 141.78125 L 227.957031 143.84375 C 230.085938 144.730469 232.128906 145.898438 234.046875 147.328125 C 201.421875 189.042969 154.402344 217.957031 108.992188 228.65625 C 132.386719 229.183594 162.160156 215.414062 183.003906 203.230469 C 191.265625 198.402344 231.789062 170.730469 240.9375 154.347656 C 242.273438 156.152344 243.480469 158.101562 244.515625 160.199219 L 248.503906 168.265625 C 249.070312 156.980469 250.320312 145.765625 252.25 134.71875 L 253.605469 126.949219 C 244.535156 131.890625 235.316406 136.402344 225.972656 140.476562 Z M 225.972656 140.476562 " fill-opacity="1" fill-rule="nonzero"/></g></svg>